<?xml version="1.0" encoding="UTF-8"?>
<svg width="38px" height="40px" viewBox="0 0 38 40" version="1.1" xmlns="http://www.w3.org/2000/svg" xmlns:xlink="http://www.w3.org/1999/xlink">
    <!-- Generator: Sketch 57.1 (83088) - https://sketch.com -->
    <title>未命名 2</title>
    <desc>Created with Sketch.</desc>
    <defs>
        <polygon id="path-1" points="0.705 0.647 28.705 0.647 28.705 9.647 0.705 9.647"></polygon>
    </defs>
    <g id="页面-1" stroke="none" stroke-width="1" fill="none" fill-rule="evenodd">
        <polyline id="Fill-1575" fill="#F92649" points="10.629 23.059 17.357 12.555 23.512 23.182 10.629 23.059"></polyline>
        <polyline id="Fill-1576" fill="#F48295" points="8.863 11.407 17.357 12.555 10.629 23.059 8.863 11.407"></polyline>
        <polyline id="Fill-1577" fill="#E02040" points="1.396 20.68 8.863 11.407 10.629 23.059 1.396 20.68"></polyline>
        <polyline id="Fill-1578" fill="#F22F50" points="3.447 13.499 8.863 11.407 1.396 20.68 3.447 13.499"></polyline>
        <polyline id="Fill-1579" fill="#E62A43" points="10.054 8.903 8.863 11.407 3.447 13.499 10.054 8.903"></polyline>
        <polyline id="Fill-1580" fill="#F92649" points="17.357 12.555 8.863 11.407 10.054 8.903 17.357 12.555"></polyline>
        <polyline id="Fill-1581" fill="#E62A43" points="17.604 7.919 17.357 12.555 10.054 8.903 17.604 7.919"></polyline>
        <polyline id="Fill-1582" fill="#F2415F" points="25.317 10.177 17.357 12.555 17.604 7.919 25.317 10.177"></polyline>
        <polyline id="Fill-1583" fill="#E02040" points="23.512 23.182 25.317 10.177 17.357 12.555 23.512 23.182"></polyline>
        <polyline id="Fill-1584" fill="#CE0D29" points="33.853 21.542 23.512 23.182 25.317 10.177 33.853 21.542"></polyline>
        <polyline id="Fill-1585" fill="#C40A32" points="30.693 9.273 33.853 21.542 25.317 10.177 30.693 9.273"></polyline>
        <polyline id="Fill-1586" fill="#C10025" points="35.781 15.099 33.853 21.542 30.693 9.273 35.781 15.099"></polyline>
        <polyline id="Fill-1587" fill="#B20022" points="37.71 20.229 33.853 21.542 35.781 15.099 37.71 20.229"></polyline>
        <polyline id="Fill-1588" fill="#E62A43" points="3.447 13.499 0.862 17.439 1.396 20.68 3.447 13.499"></polyline>
        <polyline id="Fill-1589" fill="#C40A32" points="17.604 7.919 25.358 6.77 25.317 10.177 17.604 7.919"></polyline>
        <polyline id="Fill-1590" fill="#B7001F" points="30.693 9.273 25.358 6.77 25.317 10.177 30.693 9.273"></polyline>
        <polyline id="Fill-1591" fill="#DD1D3E" points="17.604 7.919 15.429 6.606 10.054 8.903 17.604 7.919"></polyline>
        <polyline id="Fill-1592" fill="#CE0D29" points="19.738 5.867 17.604 7.919 25.358 6.77 19.738 5.867"></polyline>
        <polyline id="Fill-1593" fill="#E62A43" points="15.429 6.606 19.738 5.867 17.604 7.919 15.429 6.606"></polyline>
        <polyline id="Fill-1594" fill="#F92649" points="13.623 2.954 15.429 6.606 19.738 5.867 13.623 2.954"></polyline>
        <polyline id="Fill-1595" fill="#E62A43" points="17.069 3.938 19.738 5.867 13.623 2.954 17.069 3.938"></polyline>
        <polyline id="Fill-1596" fill="#F2415F" points="18.055 0 17.069 3.938 19.738 5.867 18.055 0"></polyline>
        <polyline id="Fill-1597" fill="#D11333" points="20.271 3.611 19.738 5.867 18.055 0 20.271 3.611"></polyline>
        <polyline id="Fill-1598" fill="#F92649" points="22.98 1.723 20.271 3.611 19.738 5.867 22.98 1.723"></polyline>
        <polyline id="Fill-1599" fill="#D11837" points="21.748 5.458 19.738 5.867 22.98 1.723 21.748 5.458"></polyline>
        <polyline id="Fill-1600" fill="#B7001F" points="25.358 6.77 21.748 5.458 19.738 5.867 25.358 6.77"></polyline>
        <polyline id="Fill-1601" fill="#E02040" points="18.096 31.8 10.629 23.059 23.512 23.182 18.096 31.8"></polyline>
        <polyline id="Fill-1602" fill="#F22F50" points="5.212 29.379 10.629 23.059 1.396 20.68 5.212 29.379"></polyline>
        <polyline id="Fill-1603" fill="#AD0029" points="23.512 23.182 33.853 21.542 31.021 30.077 23.512 23.182"></polyline>
        <polyline id="Fill-1604" fill="#C40A32" points="37.71 20.229 33.853 21.542 36.971 27.943 37.71 20.229"></polyline>
        <polyline id="Fill-1605" fill="#B7001F" points="31.021 30.077 33.853 21.542 36.971 27.943 31.021 30.077"></polyline>
        <polyline id="Fill-1606" fill="#C40A32" points="23.512 23.182 31.021 30.077 18.096 31.8 23.512 23.182"></polyline>
        <polyline id="Fill-1607" fill="#F2415F" points="10.629 23.059 5.212 29.379 18.096 31.8 10.629 23.059"></polyline>
        <polyline id="Fill-1608" fill="#F92649" points="1.396 20.68 0 21.378 0.862 17.439 1.396 20.68"></polyline>
        <polyline id="Fill-1609" fill="#E62A43" points="5.212 29.379 1.438 28.395 1.396 20.68 5.212 29.379"></polyline>
        <polyline id="Fill-1610" fill="#F2415F" points="0 21.378 1.396 20.68 1.438 28.395 0 21.378"></polyline>
        <polyline id="Fill-1611" fill="#DD1D3E" points="1.438 28.395 5.212 29.379 4.268 34.057 1.438 28.395"></polyline>
        <polyline id="Fill-1612" fill="#F92649" points="18.096 31.8 11.079 36.15 5.212 29.379 18.096 31.8"></polyline>
        <polyline id="Fill-1613" fill="#C10025" points="25.482 35.986 18.096 31.8 31.021 30.077 25.482 35.986"></polyline>
        <polyline id="Fill-1614" fill="#C40A32" points="32.949 34.673 36.971 27.943 31.021 30.077 32.949 34.673"></polyline>
        <polyline id="Fill-1615" fill="#B7001F" points="11.079 36.15 18.096 31.8 25.482 35.986 11.079 36.15"></polyline>
        <polyline id="Fill-1616" fill="#DB2846" points="5.212 29.379 11.079 36.15 4.268 34.057 5.212 29.379"></polyline>
        <polyline id="Fill-1617" fill="#B5002B" points="25.482 35.986 31.021 30.077 32.949 34.673 25.482 35.986"></polyline>
        <polyline id="Fill-1618" fill="#B5002B" points="18.055 39.022 25.482 35.986 11.079 36.15 18.055 39.022"></polyline>
        <polyline id="Fill-1619" fill="#B7001F" points="26.262 38.694 25.482 35.986 18.055 39.022 26.262 38.694"></polyline>
        <polyline id="Fill-1620" fill="#AA022A" points="32.949 34.673 25.482 35.986 26.262 38.694 32.949 34.673"></polyline>
        <polyline id="Fill-1621" fill="#C40A32" points="11.079 36.15 9.684 38.242 18.055 39.022 11.079 36.15"></polyline>
        <g id="编组" transform="translate(3.563000, 29.513000)">
            <mask id="mask-2" fill="white">
                <use xlink:href="#path-1"></use>
            </mask>
            <g id="Clip-1623"></g>
            <polyline id="Fill-1622" fill="#CE0D29" mask="url(#mask-2)" points="0.705 4.544 7.516 6.637 6.121 8.729 0.705 4.544"></polyline>
        </g>
    </g>
</svg>